<svg xmlns="http://www.w3.org/2000/svg" viewBox="8 9 80 80" width="80" height="80"><rect x="8" y="9" width="80" height="80" rx="18" fill="#efe2c8"/><circle cx="48" cy="46" r="35" fill="#e6d3ad"/><path d="M14 96C16 77 30 69 48 69C66 69 80 77 82 96Z" fill="#e0894a"/><path d="M41 57H55V70C55 75 41 75 41 70Z" fill="#60402c"/><rect x="38" y="66" width="20" height="9" rx="4.5" fill="#a16335"/><circle cx="31" cy="47" r="4.5" fill="#704a33"/><circle cx="65" cy="47" r="4.5" fill="#704a33"/><ellipse cx="48" cy="45" rx="17" ry="19" fill="#704a33"/><path d="M31 41C30 24 66 24 65 41C60 33 36 33 31 41Z" fill="#8f8a86"/><path d="M37 39.5L44 41.5M59 39.5L52 41.5" stroke="#726e6b" stroke-width="2.4" stroke-linecap="round"/><circle cx="41" cy="47" r="2.3" fill="#1d2430"/><circle cx="55" cy="47" r="2.3" fill="#1d2430"/><circle cx="41.8" cy="46.2" r=".7" fill="#fff"/><circle cx="55.8" cy="46.2" r=".7" fill="#fff"/><path d="M48 48.5Q46 52.5 48.8 53" fill="none" stroke="#513525" stroke-width="1.6" stroke-linecap="round"/><path d="M41.5 54Q48 62 54.5 54Z" fill="#7a3b34"/><path d="M43 54.6H53" stroke="#fff" stroke-width="1.6" stroke-linecap="round"/><circle cx="30.5" cy="52.5" r="1.8" fill="#e2b33e"/><circle cx="65.5" cy="52.5" r="1.8" fill="#e2b33e"/></svg>
