<svg xmlns="http://www.w3.org/2000/svg" viewBox="8 9 80 80" width="80" height="80"><rect x="8" y="9" width="80" height="80" rx="18" fill="#ecd7df"/><circle cx="48" cy="46" r="35" fill="#e0c1cd"/><path d="M27 46C24 22 72 22 69 46L72 80H24Z" fill="#e6e0d4"/><path d="M14 96C16 77 30 69 48 69C66 69 80 77 82 96Z" fill="#3f7f9e"/><path d="M41 57H55V70C55 75 41 75 41 70Z" fill="#d1b9a4"/><path d="M34 70C40 76 56 76 62 70L63 76C56 81 40 81 33 76Z" fill="#2d5b72"/><path d="M55 76L59 90H52Z" fill="#2d5b72"/><circle cx="31" cy="47" r="4.5" fill="#f3d7bf"/><circle cx="65" cy="47" r="4.5" fill="#f3d7bf"/><ellipse cx="48" cy="45" rx="17" ry="19" fill="#f3d7bf"/><path d="M31 43C29 22 67 22 65 41C58 31 46 35 39 30C36 33 33 37 31 43Z" fill="#e6e0d4"/><path d="M37 41Q40.5 38.5 44 40.5M52 40.5Q55.5 38.5 59 41" fill="none" stroke="#b8b3aa" stroke-width="2.4" stroke-linecap="round"/><circle cx="41" cy="47" r="2.3" fill="#1d2430"/><circle cx="55" cy="47" r="2.3" fill="#1d2430"/><circle cx="41.8" cy="46.2" r=".7" fill="#fff"/><circle cx="55.8" cy="46.2" r=".7" fill="#fff"/><path d="M48 48.5Q46 52.5 48.8 53" fill="none" stroke="#af9b8a" stroke-width="1.6" stroke-linecap="round"/><path d="M42 55Q48 60 54 55" fill="none" stroke="#7a3b34" stroke-width="2.2" stroke-linecap="round"/><circle cx="36.5" cy="53" r="3" fill="#e5847866"/><circle cx="59.5" cy="53" r="3" fill="#e5847866"/><circle cx="30.5" cy="52.5" r="1.8" fill="#e2b33e"/><circle cx="65.5" cy="52.5" r="1.8" fill="#e2b33e"/></svg>
