<svg xmlns="http://www.w3.org/2000/svg" viewBox="8 9 80 80" width="80" height="80"><rect x="8" y="9" width="80" height="80" rx="18" fill="#ddd5ef"/><circle cx="48" cy="46" r="35" fill="#cbbfe6"/><path d="M28 45C25 21 71 21 68 45L70 63C62 67 34 67 26 63Z" fill="#a8693a"/><path d="M14 96C16 77 30 69 48 69C66 69 80 77 82 96Z" fill="#d9733a"/><path d="M41 57H55V70C55 75 41 75 41 70Z" fill="#c9a78a"/><path d="M34 70C40 76 56 76 62 70L63 76C56 81 40 81 33 76Z" fill="#9c532a"/><path d="M55 76L59 90H52Z" fill="#9c532a"/><circle cx="31" cy="47" r="4.5" fill="#eac2a0"/><circle cx="65" cy="47" r="4.5" fill="#eac2a0"/><ellipse cx="48" cy="45" rx="17" ry="19" fill="#eac2a0"/><path d="M31 43C29 22 67 22 65 41C58 31 46 35 39 30C36 33 33 37 31 43Z" fill="#a8693a"/><path d="M37 39.5L44 41.5M59 39.5L52 41.5" stroke="#86542e" stroke-width="2.4" stroke-linecap="round"/><circle cx="41" cy="47" r="2.3" fill="#1d2430"/><circle cx="55" cy="47" r="2.3" fill="#1d2430"/><circle cx="41.8" cy="46.2" r=".7" fill="#fff"/><circle cx="55.8" cy="46.2" r=".7" fill="#fff"/><path d="M48 48.5Q46 52.5 48.8 53" fill="none" stroke="#a88c73" stroke-width="1.6" stroke-linecap="round"/><path d="M41.5 54Q48 62 54.5 54Z" fill="#7a3b34"/><path d="M43 54.6H53" stroke="#fff" stroke-width="1.6" stroke-linecap="round"/><circle cx="36.5" cy="53" r="3" fill="#e5847866"/><circle cx="59.5" cy="53" r="3" fill="#e5847866"/></svg>
